<?xml version="1.0" standalone="no"?>
<!DOCTYPE svg PUBLIC "-//W3C//DTD SVG 20010904//EN"
 "http://www.w3.org/TR/2001/REC-SVG-20010904/DTD/svg10.dtd">
<svg version="1.0" xmlns="http://www.w3.org/2000/svg"
 width="1524.000000pt" height="1392.000000pt" viewBox="0 0 1524.000000 1392.000000"
 preserveAspectRatio="xMidYMid meet">

<g transform="translate(0.000000,1392.000000) scale(0.100000,-0.100000)"
fill="#000000" stroke="none">
<path d="M1 10943 c1 -2566 3 -2966 15 -2893 101 625 341 1349 637 1920 260
504 483 846 841 1289 288 358 670 735 1121 1107 244 201 518 390 874 603 390
233 674 379 1059 542 395 168 602 237 1066 354 l211 54 -2912 0 -2913 1 1
-2977z"/>
<path d="M9481 13916 c2 -2 63 -18 134 -35 358 -88 822 -240 1155 -381 596
-250 1382 -726 1930 -1168 259 -209 712 -636 925 -872 430 -477 823 -1072
1060 -1605 251 -563 411 -1078 524 -1690 11 -60 22 -119 24 -130 3 -11 5 1309
6 2933 l1 2952 -2882 0 c-1585 0 -2879 -2 -2877 -4z"/>
<path d="M7296 12069 c-61 -28 -158 -62 -225 -79 -85 -21 -151 -47 -246 -94
-71 -36 -200 -99 -286 -139 -165 -78 -211 -106 -322 -195 -76 -62 -183 -186
-232 -270 -18 -32 -53 -88 -79 -127 -49 -74 -92 -175 -125 -295 -24 -84 -15
-73 -178 -224 -69 -63 -199 -236 -232 -306 -22 -48 -26 -72 -29 -179 -3 -87 1
-150 13 -215 15 -81 15 -130 7 -461 -8 -279 -14 -381 -25 -416 -8 -25 -18 -83
-21 -130 -48 -662 -50 -679 -90 -854 -141 -616 -237 -880 -440 -1217 -40 -68
-85 -145 -98 -173 -71 -146 -150 -273 -334 -540 -42 -60 -79 -119 -84 -130
-15 -39 -175 -223 -185 -213 -7 7 127 275 200 398 70 120 197 309 296 442 105
140 191 269 184 276 -3 4 -11 0 -16 -9 -8 -16 -35 -52 -169 -234 -247 -334
-496 -757 -505 -861 -3 -31 -21 -64 -46 -84 -4 -3 -44 -40 -90 -82 -47 -42
-98 -87 -114 -100 -94 -72 -282 -235 -362 -311 -50 -49 -134 -118 -187 -155
-52 -37 -166 -116 -253 -176 -234 -162 -339 -243 -392 -303 -50 -56 -195 -299
-186 -312 11 -19 -45 -128 -139 -271 -151 -228 -205 -321 -262 -455 -70 -161
-94 -246 -154 -535 -98 -470 -143 -664 -160 -683 -4 -5 -27 16 -51 45 -24 29
-71 85 -105 123 -142 163 -413 522 -567 752 -311 465 -533 907 -723 1441 -88
248 -212 712 -254 952 l-29 165 0 -2917 -1 -2918 2921 0 2920 0 -72 83 c-175
200 -246 358 -256 564 -4 93 -1 124 16 188 34 122 63 167 198 308 69 73 150
169 181 215 l54 84 32 -30 c71 -69 402 -268 523 -317 38 -14 104 -41 148 -60
142 -59 308 -122 375 -143 36 -12 101 -36 145 -55 112 -48 621 -215 675 -222
33 -4 22 1 -40 20 -47 14 -137 44 -200 65 -63 22 -177 61 -252 87 -76 26 -138
50 -138 53 0 4 26 13 58 19 67 15 192 63 315 120 137 63 383 214 688 424 l126
86 6 -102 c8 -139 38 -278 82 -384 21 -48 40 -103 42 -121 3 -18 13 -38 23
-45 10 -7 16 -18 12 -24 -4 -6 -65 -50 -137 -97 -78 -52 -121 -86 -108 -86 11
0 55 22 96 50 87 56 137 83 143 77 8 -7 -203 -204 -306 -287 -122 -97 -197
-148 -292 -200 -40 -22 -68 -40 -63 -40 17 0 225 118 290 165 75 54 226 180
335 280 54 50 86 73 93 66 11 -11 5 -136 -13 -281 -19 -148 6 -460 37 -460 9
0 12 7 9 18 -3 9 -13 57 -22 107 -21 116 -14 311 16 440 12 50 22 101 22 113
0 23 1 23 18 5 99 -102 193 -225 230 -298 42 -82 43 -87 42 -172 -2 -76 -6
-96 -32 -146 -17 -31 -30 -60 -30 -62 0 -3 93 -4 207 -3 191 3 206 4 209 21 4
30 14 33 14 4 l0 -27 2950 0 2950 0 -1 2933 c-1 1819 -5 2911 -11 2877 -25
-151 -102 -531 -132 -651 -81 -327 -294 -901 -452 -1221 -223 -450 -383 -703
-713 -1127 -245 -315 -658 -761 -916 -990 -270 -240 -403 -344 -755 -593 -299
-212 -824 -530 -1112 -673 -84 -42 -190 -95 -235 -118 -45 -23 -84 -39 -87
-36 -3 2 11 50 30 105 46 136 67 277 68 454 0 159 -14 233 -73 386 -17 43 -28
80 -26 83 3 2 27 -43 54 -100 120 -253 155 -474 112 -719 -10 -58 -17 -107
-15 -109 7 -8 24 51 39 136 61 353 -60 726 -370 1143 -166 222 -189 255 -231
328 -24 42 -51 101 -60 131 -8 30 -22 64 -30 77 -11 16 -13 28 -6 41 7 12 6
25 -4 44 -7 15 -14 61 -15 103 -1 75 -1 75 50 150 119 175 199 319 261 471 21
50 40 90 43 90 14 0 141 -167 246 -324 193 -291 276 -474 361 -792 20 -76 44
-125 36 -74 -2 17 -11 58 -20 92 -9 34 -13 69 -10 78 3 8 2 15 -4 15 -12 0
-27 98 -17 108 3 3 11 0 16 -8 19 -26 1 225 -26 380 -38 218 -69 322 -185 625
-51 132 -158 376 -172 390 -19 19 4 -59 48 -163 24 -56 53 -136 64 -178 10
-41 22 -80 26 -86 4 -6 8 -27 10 -47 1 -19 7 -37 13 -39 6 -2 11 -14 11 -27 0
-13 5 -27 10 -30 6 -3 10 -18 11 -33 0 -24 1 -25 10 -7 7 16 8 14 4 -10 -3
-17 2 -51 10 -75 22 -60 40 -346 24 -366 -6 -7 -8 -22 -5 -31 12 -32 -8 -2
-136 193 -69 104 -166 245 -216 313 -83 112 -91 127 -97 179 -22 202 -109 420
-280 702 -209 345 -336 679 -352 926 -5 95 -4 106 27 207 19 59 36 106 40 105
3 -2 39 -39 80 -83 78 -85 180 -234 291 -429 80 -138 102 -167 40 -51 -87 161
-203 344 -271 426 -102 122 -128 164 -122 195 6 32 14 31 187 -43 156 -67 256
-105 261 -100 2 2 -40 21 -94 42 -72 28 -326 147 -339 159 0 0 5 33 12 71 49
260 36 574 -39 915 -8 36 -22 99 -30 140 -21 94 -95 385 -141 555 -113 414
-180 702 -220 946 -23 142 -18 155 20 54 37 -97 44 -103 19 -15 -27 95 -29
320 -5 508 12 89 21 169 21 177 0 8 5 15 11 15 8 0 9 -43 5 -152 -7 -167 1
-179 30 -42 21 105 15 150 -43 326 -49 144 -49 148 -40 220 10 85 3 440 -13
578 -18 163 -51 353 -67 393 -9 20 -13 40 -10 44 4 3 8 4 10 2 2 -2 37 -44 78
-94 139 -166 255 -347 320 -500 42 -100 53 -104 14 -6 -55 141 -151 301 -281
466 -76 97 -157 206 -172 233 -7 12 -28 65 -46 116 -41 112 -58 146 -124 255
-29 46 -52 94 -52 105 0 37 -94 284 -156 409 -80 164 -234 317 -425 424 -61
34 -118 68 -126 74 -8 7 -43 56 -78 109 -44 67 -86 116 -141 163 -102 88 -152
107 -287 107 -97 1 -104 2 -141 30 -44 33 -66 38 -66 14 0 -12 -8 -14 -42 -9
-24 3 -70 7 -103 9 -72 5 -87 10 -146 53 -77 55 -126 73 -204 73 -63 0 -81 -5
-179 -51z m271 6 c28 -8 62 -24 75 -36 l23 -20 -25 4 c-14 3 -82 11 -152 18
-70 7 -125 16 -122 21 17 27 129 34 201 13z m788 -181 c19 -9 54 -38 79 -64
l46 -49 0 -124 c0 -164 -21 -273 -56 -284 -6 -2 2 44 18 109 33 127 34 218 4
276 -24 47 -87 107 -143 137 -45 25 -46 26 -15 21 19 -3 49 -13 67 -22z m53
-391 c-5 -74 -23 -142 -34 -131 -5 5 13 167 22 196 2 6 6 12 10 12 4 0 4 -35
2 -77z m510 -113 c23 -18 42 -42 42 -52 0 -10 5 -17 11 -15 23 5 19 -21 -6
-37 -32 -21 -41 -16 -24 13 12 18 8 25 -39 70 -29 27 -52 55 -52 62 0 8 4 8
13 2 6 -5 31 -25 55 -43z m-1218 -243 c0 -7 -14 -29 -31 -50 -17 -21 -30 -40
-28 -42 3 -2 29 12 59 31 30 19 62 34 73 34 10 0 27 5 38 10 15 8 19 7 19 -5
0 -18 14 -19 42 -4 11 6 35 15 52 20 l31 8 -35 -29 c-29 -25 -32 -30 -15 -30
11 0 40 11 65 24 25 13 61 27 80 31 31 7 33 6 21 -9 -7 -9 -24 -16 -37 -16
-12 0 -25 -3 -27 -8 -3 -4 31 -5 74 -3 57 2 88 -1 112 -12 18 -9 64 -22 102
-30 61 -13 116 -32 240 -81 69 -27 284 -150 328 -187 48 -42 60 -63 30 -53
-10 4 10 -20 44 -52 66 -62 163 -187 163 -210 0 -7 14 -29 30 -47 36 -41 36
-43 10 -50 -28 -7 -26 -16 21 -78 65 -87 92 -147 94 -209 1 -30 6 -74 10 -97
6 -35 5 -44 -9 -49 -20 -8 -21 -38 -1 -54 8 -7 15 -18 15 -24 0 -6 13 -54 29
-106 16 -52 37 -121 46 -152 9 -32 20 -58 26 -58 5 0 9 -4 9 -9 0 -4 -26 4
-57 19 -31 15 -65 25 -75 22 -10 -2 -18 1 -18 7 0 6 -5 11 -11 11 -6 0 -25 7
-42 15 -59 27 -231 76 -357 100 -178 35 -376 48 -544 35 -222 -17 -319 -43
-418 -112 l-61 -43 -196 3 -196 4 -40 37 c-57 53 -193 104 -335 127 -86 14
-170 18 -335 18 -239 0 -342 -10 -535 -53 -125 -28 -168 -27 -157 4 3 7 1 31
-4 54 -9 38 -2 96 17 146 5 13 4 16 -4 11 -7 -4 -12 -2 -12 3 0 6 5 11 10 11
6 0 10 11 10 25 0 14 9 65 19 113 11 48 22 116 26 152 7 68 35 165 61 212 8
15 15 31 14 35 0 5 16 29 35 54 19 25 35 50 35 55 0 5 11 22 26 37 14 15 22
32 19 37 -4 6 -1 9 6 8 7 -2 22 11 34 29 12 18 26 29 29 25 4 -3 4 1 0 11 -5
13 -1 17 16 17 19 0 21 2 9 16 -10 13 -10 17 2 25 8 5 22 7 32 5 18 -4 24 10
6 16 -15 5 193 112 261 133 74 24 76 26 49 40 -21 12 -17 14 46 19 39 4 81 9
95 12 l25 6 -27 14 c-16 8 -28 17 -28 19 0 3 33 2 74 -1 48 -5 75 -3 80 4 4 7
29 9 72 5 47 -4 68 -3 74 6 5 10 15 9 41 -2 35 -14 74 -7 91 18 5 7 14 6 28
-3 12 -7 30 -10 41 -7 11 4 26 1 34 -5 8 -7 21 -10 28 -7 20 7 117 -20 138
-39 18 -16 22 -15 71 18 29 20 64 47 78 61 28 28 40 33 40 14z m-2153 -739
c-40 -90 -95 -232 -125 -323 l-10 -30 -12 30 c-7 17 -14 64 -14 105 -1 91 16
129 110 241 59 71 82 92 93 83 2 -2 -17 -49 -42 -106z m1273 -727 c26 -8 20
-10 -90 -24 -14 -2 2 -6 35 -10 235 -27 287 -42 310 -88 8 -15 15 -43 15 -62
0 -27 -5 -36 -22 -42 -13 -4 -138 -8 -278 -9 l-255 -1 -83 -32 c-46 -18 -106
-46 -133 -63 -27 -16 -56 -30 -64 -30 -8 0 -15 -4 -15 -8 0 -4 -15 -16 -32
-27 -18 -10 -38 -25 -44 -33 -7 -9 -16 -12 -24 -7 -10 6 -12 4 -7 -8 3 -10 2
-17 -4 -17 -6 0 -7 -5 -3 -11 4 -7 -2 -19 -14 -28 -11 -9 -24 -27 -27 -41 -5
-22 -1 -28 33 -43 21 -9 52 -15 68 -13 16 3 63 10 104 16 41 6 105 18 141 26
36 9 72 15 80 14 8 -1 47 -2 87 -1 58 1 76 5 92 21 24 24 30 25 30 5 0 -12 13
-15 58 -15 71 0 92 18 99 85 4 28 11 45 19 45 21 0 68 -20 87 -37 15 -15 16
-18 2 -39 -8 -13 -15 -32 -15 -44 0 -11 -4 -20 -9 -20 -4 0 -16 -19 -25 -43
-18 -47 -20 -121 -7 -179 6 -27 6 -38 -3 -38 -13 -1 52 -30 66 -30 5 0 6 5 3
10 -3 6 5 10 19 10 13 0 32 7 40 16 9 8 16 13 16 9 0 -3 11 1 23 10 14 9 32
38 42 70 11 30 23 55 28 55 4 0 6 4 3 8 -3 5 11 51 29 103 29 78 35 110 37
185 2 66 -2 96 -11 108 -13 15 -12 18 7 23 12 3 22 12 22 20 0 8 -4 11 -10 8
-16 -10 -11 35 5 52 14 14 15 13 9 -13 -7 -26 -6 -28 9 -15 10 7 17 24 17 37
0 33 16 30 25 -3 15 -55 18 -90 18 -188 0 -81 -6 -116 -28 -185 -28 -87 -101
-237 -134 -278 -25 -29 -81 -48 -183 -62 -46 -6 -121 -18 -168 -26 -62 -12
-160 -16 -370 -17 -256 -2 -293 0 -359 18 -86 24 -98 37 -142 157 -49 133 -62
210 -63 363 -1 132 0 143 26 198 24 51 33 61 81 83 53 24 188 57 297 73 69 11
506 12 540 2z m1966 -22 c124 -12 309 -51 353 -73 86 -45 106 -117 91 -336
-18 -273 -74 -459 -150 -497 -22 -11 -22 -13 -5 -13 11 0 25 4 31 8 12 8 73
102 100 153 18 35 93 292 94 319 0 19 47 90 59 90 16 0 31 -86 43 -250 17
-236 -10 -722 -53 -958 -17 -90 -28 -169 -26 -175 3 -7 8 6 12 28 4 22 28 103
52 180 35 109 44 151 40 187 -2 26 -2 50 1 53 3 3 13 33 23 68 19 68 81 256
108 327 20 53 44 61 84 30 31 -24 37 -79 12 -100 -20 -17 -19 -33 3 -26 37 12
41 -4 48 -194 6 -158 4 -193 -10 -244 -32 -110 -157 -341 -243 -448 -48 -59
-130 -120 -153 -113 -15 5 -20 2 -20 -11 0 -10 -4 -31 -10 -48 -5 -17 -21 -83
-36 -146 -14 -63 -37 -141 -50 -173 -66 -164 -240 -339 -729 -732 -278 -223
-376 -285 -525 -334 -95 -32 -189 -35 -429 -17 -259 20 -345 36 -427 77 -59
30 -194 126 -295 210 -24 21 -78 64 -119 97 -182 145 -400 343 -400 362 0 6
-4 10 -9 10 -19 0 -41 32 -41 61 0 16 -4 29 -10 29 -5 0 -10 7 -10 15 0 8 -5
15 -11 15 -5 0 -7 4 -4 10 3 5 -10 34 -30 65 -19 30 -35 61 -35 68 0 7 -4 17
-9 23 -12 13 -66 185 -85 275 -9 43 -21 128 -27 190 -14 167 -20 213 -30 220
-30 18 -47 639 -18 639 5 0 9 10 9 23 0 13 8 32 19 43 32 33 71 64 81 64 6 0
10 4 10 9 0 13 37 25 80 27 352 12 660 25 681 30 26 5 69 -23 69 -45 0 -15 27
-59 56 -91 13 -14 42 -63 66 -108 61 -120 100 -180 125 -195 7 -4 13 -16 13
-26 0 -10 7 -24 15 -31 12 -10 18 -3 39 42 14 29 34 62 45 72 19 17 21 17 27
2 3 -9 12 -16 20 -16 21 0 17 -26 -12 -70 -32 -48 -28 -64 17 -67 19 -1 65 -5
104 -8 77 -7 95 3 95 57 0 31 -28 108 -39 108 -4 0 -8 6 -8 13 0 23 -57 87
-77 87 -15 0 -17 5 -13 28 4 15 13 59 21 97 9 39 21 117 27 175 6 58 17 138
25 179 8 40 14 96 14 125 0 28 7 89 15 136 8 47 17 106 20 132 9 74 30 91 113
96 80 5 129 -8 161 -42 12 -13 38 -70 57 -127 39 -116 184 -421 191 -402 2 6
-6 40 -20 75 -13 35 -31 86 -41 113 -10 28 -33 93 -52 145 -32 87 -35 102 -31
180 3 54 13 106 27 143 30 80 63 96 224 106 188 12 551 12 672 0z m580 -154
c8 -20 -13 -45 -38 -45 -18 0 -40 37 -31 53 8 13 63 7 69 -8z m91 -93 c46 -89
44 -117 -3 -60 -56 66 -81 133 -47 126 10 -2 32 -32 50 -66z m-3697 29 c0 -6
-11 -23 -25 -38 -28 -32 -35 -12 -9 25 16 23 34 29 34 13z m1037 -23 c18 -7
33 -16 33 -21 0 -5 -6 -7 -12 -4 -26 10 -294 -11 -333 -25 -22 -9 -49 -19 -60
-23 -13 -4 -7 5 15 24 19 17 55 37 80 45 56 18 231 20 277 4z m-297 -153 c15
-18 5 -65 -15 -65 -21 0 -27 17 -20 50 7 33 17 37 35 15z m-413 -511 c-3 -3
-12 -4 -19 -1 -8 3 -5 6 6 6 11 1 17 -2 13 -5z m1253 -378 c0 -3 -4 -8 -10
-11 -5 -3 -10 -1 -10 4 0 6 5 11 10 11 6 0 10 -2 10 -4z m1575 -1513 c-19
-181 -240 -1049 -304 -1198 -18 -41 -47 -188 -58 -287 -3 -32 -9 -58 -13 -58
-12 0 -18 -89 -9 -131 12 -52 -9 -193 -55 -376 -19 -76 -43 -176 -52 -223 -10
-47 -19 -86 -20 -88 -1 -2 -13 -5 -26 -7 -45 -5 -259 -87 -297 -114 -47 -32
-216 -191 -203 -191 13 0 53 31 142 111 41 36 93 76 116 87 49 25 223 76 231
68 3 -3 -2 -38 -12 -78 -51 -211 -127 -380 -261 -583 -44 -66 -90 -138 -103
-160 l-24 -40 31 35 c17 19 61 76 97 126 36 50 76 107 90 125 39 56 106 177
147 268 42 95 45 95 23 3 -44 -188 33 -560 170 -819 30 -57 55 -114 55 -126 0
-33 -45 -214 -70 -280 -36 -95 -47 -103 -375 -249 -296 -133 -405 -176 -513
-206 -93 -25 -108 -26 -352 -26 -276 -1 -271 -1 -480 66 -158 50 -265 96 -495
211 -127 63 -260 137 -314 176 -51 36 -107 76 -125 88 -76 53 -85 66 -107 148
-48 184 -18 479 80 800 21 72 55 182 74 245 20 63 43 144 52 179 24 94 66 195
75 180 10 -16 234 -15 252 1 7 6 22 17 33 25 19 14 19 14 -10 15 -16 0 -37 5
-45 11 -12 8 -11 9 6 4 12 -3 32 -1 45 5 23 10 23 10 -3 5 -16 -3 -28 -1 -28
4 0 5 -14 14 -32 20 -17 6 -28 14 -25 18 4 3 17 1 30 -5 23 -11 165 -52 257
-73 42 -10 62 -21 85 -48 17 -19 24 -32 18 -27 -7 4 -13 4 -13 1 0 -11 27 -34
33 -29 12 13 204 -245 428 -576 217 -320 353 -483 482 -583 l37 -28 -34 -34
c-37 -37 -88 -136 -156 -305 -23 -58 -49 -122 -58 -143 -8 -20 -12 -40 -9 -44
8 -7 77 28 77 39 0 5 -4 8 -10 8 -15 0 -12 25 7 65 23 47 33 44 33 -10 0 -39
3 -45 20 -45 11 0 23 8 27 18 3 9 11 23 17 30 5 8 11 24 13 35 3 25 15 53 49
120 13 26 24 57 24 70 0 38 31 116 51 131 13 9 36 12 67 9 33 -4 44 -2 37 5
-5 6 -32 12 -60 14 l-50 3 35 22 c19 13 51 23 70 23 30 0 44 9 90 56 l55 56
-50 -35 c-130 -90 -166 -87 -56 6 45 37 81 73 81 78 0 6 -17 -3 -37 -21 -132
-110 -186 -149 -196 -143 -60 35 -175 159 -285 307 -177 238 -191 258 -205
286 -6 14 -17 29 -24 33 -7 4 -13 17 -13 27 0 11 -5 20 -10 20 -6 0 -40 45
-76 101 -36 55 -94 135 -128 177 -84 105 -189 252 -184 258 3 2 50 -11 104
-29 54 -19 125 -41 156 -51 62 -18 142 -68 210 -131 66 -61 108 -95 120 -95
13 0 -163 166 -210 199 -18 12 -91 42 -160 66 -142 48 -234 88 -252 110 -7 8
-16 13 -20 10 -4 -3 -11 6 -14 20 -3 13 -26 49 -50 78 -43 53 -85 115 -114
167 -38 68 -127 246 -127 255 0 6 -4 16 -9 23 -4 7 -6 15 -3 18 2 3 -2 33 -9
67 -22 102 -35 401 -25 571 5 83 9 158 9 166 1 42 11 141 17 162 30 94 169
152 238 98 14 -11 40 -20 59 -20 18 0 43 -7 54 -14 12 -8 43 -20 70 -27 27 -6
54 -16 60 -20 42 -33 261 -74 340 -65 107 12 262 48 339 78 66 25 106 33 231
44 125 10 165 18 230 43 203 79 351 183 897 636 44 36 81 65 84 65 2 0 2 -26
-2 -57z m-4168 -295 c-3 -8 -6 -5 -6 6 -1 11 2 17 5 13 3 -3 4 -12 1 -19z
m-46 -134 c-21 -60 -57 -152 -79 -204 -22 -52 -59 -142 -82 -200 -56 -141 -75
-172 -161 -258 -76 -76 -143 -125 -80 -58 25 26 30 36 19 36 -9 0 -19 6 -21
13 -4 9 -8 8 -17 -3 -10 -13 -11 -13 -7 0 2 9 14 14 28 12 21 -2 26 4 35 37 6
22 7 46 3 53 -7 10 -9 9 -9 -3 0 -24 -39 -69 -54 -63 -8 3 -16 -4 -19 -16 -6
-24 -33 -23 -31 1 2 32 51 118 158 276 178 266 190 282 204 283 7 0 10 5 7 11
-8 12 24 51 36 43 5 -3 6 2 3 10 -3 9 -2 16 4 16 6 0 22 24 37 53 15 28 32 62
39 74 8 16 13 18 18 9 4 -7 -10 -62 -31 -122z m4803 1 c-14 -49 -28 -102 -31
-117 -3 -16 -9 -28 -13 -28 -7 0 22 141 39 190 5 14 13 39 17 55 6 23 8 26 11
10 2 -11 -8 -60 -23 -110z m638 -470 c11 -120 6 -354 -12 -480 -13 -96 -39
-193 -53 -202 -11 -7 -8 34 18 267 8 75 15 232 15 355 1 239 12 260 32 60z
m-572 68 c0 -21 -56 -143 -66 -143 -11 0 6 70 29 116 22 46 37 57 37 27z m100
-283 c-40 -56 -55 -49 -20 8 11 18 25 30 30 27 6 -4 2 -18 -10 -35z m-5370
-20 c0 -5 -4 -10 -10 -10 -5 0 -10 5 -10 10 0 6 5 10 10 10 6 0 10 -4 10 -10z
m5520 -36 c0 -14 -3 -14 -15 -4 -8 7 -15 14 -15 16 0 2 7 4 15 4 8 0 15 -7 15
-16z m-5754 -16 c-3 -13 -6 -29 -6 -35 0 -7 -6 -13 -14 -13 -10 0 -12 -7 -8
-22 4 -16 2 -20 -10 -15 -19 7 -53 -27 -43 -43 4 -7 15 -10 26 -7 15 4 16 2 6
-14 -7 -11 -21 -22 -32 -25 -11 -4 -22 -10 -25 -13 -19 -24 -75 -61 -86 -57
-7 3 -16 1 -19 -4 -4 -6 -15 -10 -25 -10 -10 0 -20 -4 -22 -9 -1 -4 -14 -11
-28 -15 -16 -5 -7 4 23 24 26 17 45 35 42 40 -4 6 -13 3 -23 -8 -27 -30 -65
-42 -80 -26 -10 12 -9 13 9 11 12 -1 24 4 27 12 3 9 0 11 -9 6 -8 -5 -12 -6
-9 -3 5 6 148 123 165 135 6 5 36 32 68 61 64 57 83 64 73 30z m5754 -12 c0
-3 -4 -8 -10 -11 -5 -3 -10 -1 -10 4 0 6 5 11 10 11 6 0 10 -2 10 -4z m-3605
-602 c7 2 21 -4 30 -14 10 -11 21 -17 26 -15 4 3 22 -21 40 -52 82 -147 175
-301 202 -336 16 -21 27 -40 24 -43 -16 -17 -244 54 -357 111 -67 34 -123 74
-104 75 6 0 10 31 10 83 0 107 18 171 45 164 13 -3 26 4 42 22 15 19 23 23 25
14 2 -8 10 -12 17 -9z m-2100 -105 c4 -6 13 -8 21 -5 10 4 14 0 12 -12 -2 -9
2 -16 8 -15 6 1 11 -20 13 -50 1 -28 7 -57 13 -65 9 -10 6 -11 -17 -2 -15 6
-30 9 -32 6 -3 -2 5 -7 16 -11 12 -3 21 -10 21 -14 0 -14 -46 -51 -55 -44 -4
5 -5 3 -2 -3 3 -6 -67 -83 -156 -172 -180 -179 -246 -238 -259 -234 -5 1 -7
-2 -4 -7 6 -9 -92 -96 -335 -296 -74 -60 -158 -132 -187 -158 -29 -26 -58 -45
-64 -41 -6 4 -8 3 -4 -4 7 -12 -70 -79 -86 -74 -5 1 -7 -1 -4 -6 3 -5 -15 -28
-39 -52 -42 -41 -45 -42 -45 -21 0 82 -167 540 -215 587 -8 8 -15 20 -15 26 0
6 -2 9 -5 6 -3 -3 7 -32 23 -64 53 -107 143 -382 177 -543 9 -41 25 -174 36
-295 53 -589 100 -841 194 -1038 18 -36 18 -39 -13 -165 -57 -238 -71 -345
-82 -628 -9 -236 -16 -298 -32 -289 -6 4 -6 0 0 -12 13 -24 62 -70 62 -59 0 5
16 -9 35 -30 19 -22 32 -41 30 -43 -4 -4 -38 21 -253 181 -94 70 -130 102
-121 108 9 5 17 3 22 -6 13 -24 25 -17 19 10 -2 14 -11 25 -20 25 -8 0 -13 3
-10 6 3 3 -5 35 -19 72 -29 78 -81 235 -113 342 -53 174 -73 241 -105 340 -19
58 -48 150 -66 205 -17 55 -42 129 -55 165 -13 36 -24 71 -24 77 0 7 -15 46
-34 88 -37 86 -38 85 -51 -45 -4 -36 -14 -75 -22 -88 -7 -12 -11 -27 -8 -32 3
-5 0 -48 -6 -96 -10 -68 -10 -144 1 -362 l12 -275 30 -50 c15 -27 24 -47 19
-45 -39 13 -367 335 -536 526 l-37 42 55 228 c31 125 80 349 111 497 97 480
130 553 503 1105 27 41 69 115 92 163 24 49 45 87 47 84 3 -3 -2 -19 -11 -37
-28 -54 -9 -45 36 17 23 32 49 66 58 76 15 18 14 18 -12 6 -15 -7 -27 -16 -27
-20 0 -4 -8 -10 -17 -13 -17 -7 36 53 102 115 31 30 55 37 55 17 0 -6 7 -4 18
5 23 21 52 21 99 2 61 -26 165 -47 232 -47 76 1 158 10 186 21 11 5 40 14 65
21 25 6 73 25 108 41 35 16 67 29 72 29 5 0 15 6 22 13 7 7 40 30 73 50 33 20
103 78 154 127 52 50 99 90 105 90 6 0 25 8 41 17 24 13 78 25 187 42 4 1 10
-4 13 -10z m-337 -46 c-10 -2 -15 -10 -11 -19 6 -17 -13 -19 -20 -1 -4 9 -8 9
-15 -2 -6 -8 -12 -9 -16 -3 -6 10 37 31 64 30 11 0 10 -2 -2 -5z m-134 -18
c-7 -17 35 -74 55 -74 11 -1 11 -4 1 -16 -8 -10 -20 -13 -34 -9 -17 6 -19 4
-9 -7 14 -17 -4 -37 -77 -86 -71 -48 -136 -78 -270 -123 -141 -48 -237 -60
-328 -40 -68 14 -187 71 -187 90 0 7 63 46 139 86 109 56 163 78 245 98 107
25 380 81 436 89 17 2 31 5 32 6 1 0 0 -6 -3 -14z m568 -60 c-6 -12 -11 -14
-16 -6 -4 6 -2 11 5 11 10 0 10 3 1 12 -7 7 -12 17 -12 22 0 6 7 3 16 -6 12
-11 13 -21 6 -33z m-472 15 c0 -5 -7 -10 -15 -10 -8 0 -15 5 -15 10 0 6 7 10
15 10 8 0 15 -4 15 -10z m637 -66 c-3 -3 -12 -4 -19 -1 -8 3 -5 6 6 6 11 1 17
-2 13 -5z m-30 -39 c0 -8 -4 -12 -9 -9 -5 3 -6 10 -3 15 9 13 12 11 12 -6z
m1760 -50 c0 -10 -6 -14 -14 -10 -8 3 -20 5 -26 5 -15 0 14 20 29 20 6 0 11
-7 11 -15z m67 -25 c14 -5 26 -15 26 -22 0 -9 -3 -9 -8 -2 -4 5 -23 15 -42 21
-19 6 -27 11 -18 12 9 1 28 -3 42 -9z m-1945 -112 c-22 -35 -45 -62 -51 -60
-5 1 -7 -2 -3 -8 3 -5 3 -15 -1 -21 -8 -14 -24 8 -24 33 0 18 53 78 69 78 5 0
7 9 4 19 -3 14 0 19 14 18 13 -2 17 4 15 18 -2 18 -1 18 8 3 8 -13 2 -30 -31
-80z m-144 72 c-3 -5 -1 -10 4 -10 6 0 11 5 11 11 0 5 5 7 11 3 8 -5 8 -9 -1
-14 -7 -5 -9 -13 -5 -21 5 -8 -1 -5 -13 5 -19 17 -22 17 -22 3 0 -10 5 -17 11
-17 5 0 7 -5 3 -12 -6 -9 -9 -9 -12 0 -11 35 -17 1 -13 -85 3 -83 1 -95 -11
-86 -12 10 -14 6 -14 -23 0 -19 -5 -38 -11 -42 -6 -4 -18 -24 -26 -44 -9 -21
-21 -38 -26 -38 -6 0 -11 -11 -11 -25 0 -14 -4 -25 -10 -25 -5 0 -14 -17 -20
-39 -5 -21 -19 -50 -30 -64 -11 -14 -23 -39 -26 -56 -4 -17 -10 -31 -14 -31
-9 0 -26 -94 -22 -125 l2 -20 -16 20 c-15 19 -15 19 -8 -9 4 -18 3 -27 -3 -23
-6 4 -8 -4 -6 -21 4 -21 2 -24 -6 -12 -13 19 -14 14 -2 -28 6 -18 6 -30 1 -27
-11 7 -33 -62 -24 -76 5 -8 3 -9 -6 -4 -10 6 -11 2 -6 -18 3 -14 2 -29 -4 -32
-5 -3 -10 -16 -10 -28 0 -17 -2 -19 -9 -8 -7 10 -11 6 -15 -16 -8 -33 -25
-209 -32 -322 -3 -47 -10 -79 -20 -88 -22 -22 -30 -7 -9 17 10 11 15 20 10 20
-12 0 -34 -33 -35 -51 0 -9 -18 -34 -40 -57 -22 -22 -40 -45 -40 -51 0 -6 -14
-23 -31 -38 -28 -25 -66 -83 -55 -83 3 0 12 7 20 16 9 8 16 11 16 6 0 -6 -14
-22 -30 -36 -17 -14 -30 -29 -30 -33 0 -17 -42 -63 -52 -57 -6 4 -9 1 -6 -7 3
-8 -4 -27 -16 -44 -26 -37 -27 -39 -103 -176 -35 -62 -63 -116 -63 -121 0 -4
-4 -8 -9 -8 -6 0 -15 -27 -22 -61 -6 -33 -15 -57 -18 -52 -6 7 -34 76 -59 148
-40 113 -81 318 -112 560 -15 117 -40 430 -40 502 l0 61 58 55 c31 30 73 68
92 83 19 16 37 31 40 34 40 41 302 261 375 315 34 25 148 121 193 163 8 7 30
25 50 40 21 15 43 35 50 45 7 9 18 15 23 11 5 -3 8 -1 7 4 -4 11 85 92 101 92
6 0 10 6 9 13 -2 6 5 11 14 11 9 -1 14 4 12 11 -3 6 3 18 12 26 14 11 18 11
30 -6 8 -10 17 -15 21 -10 5 4 2 10 -4 12 -21 7 -15 27 18 66 30 35 48 49 34
27z m75 -177 c0 -11 -43 -64 -47 -59 -3 3 -14 1 -24 -5 -11 -6 -19 -6 -19 0 0
8 24 23 42 25 3 1 10 5 15 10 5 6 2 6 -6 1 -11 -6 -13 -4 -8 8 4 10 10 24 14
34 4 11 3 14 -5 9 -13 -8 -17 6 -6 17 6 6 44 -29 44 -40z m-67 -100 c-9 -16
-18 -29 -19 -31 -1 -2 -1 8 -1 22 0 15 6 27 16 29 9 3 17 5 19 6 1 0 -5 -11
-15 -26z m1769 -183 c-31 -96 -58 -167 -60 -157 -7 33 101 347 114 334 2 -2
-22 -81 -54 -177z m-1814 125 c-6 -14 -13 -24 -14 -22 -6 6 9 47 17 47 5 0 3
-11 -3 -25z m5698 -62 c2 -21 20 -78 40 -127 56 -138 84 -289 91 -497 6 -181
-3 -289 -34 -391 l-15 -52 -15 28 c-8 15 -12 34 -9 41 2 7 -2 16 -11 19 -9 4
-13 13 -9 22 3 8 2 13 -3 9 -5 -3 -12 1 -15 7 -3 7 -3 -2 0 -21 4 -23 3 -31
-5 -27 -6 4 -11 14 -11 22 0 8 -4 14 -8 14 -10 0 -45 115 -61 200 -37 195 -38
429 -2 585 27 116 55 215 60 210 2 -3 5 -21 7 -42z m-5734 -5 c-7 -7 -12 -8
-12 -2 0 6 3 14 7 17 3 4 9 5 12 2 2 -3 -1 -11 -7 -17z m1774 -284 c-4 -14 -9
-24 -12 -21 -3 2 -2 17 2 31 3 15 9 25 11 22 3 -3 2 -17 -1 -32z m-21 -64 c-4
-12 -9 -19 -12 -17 -3 3 -2 15 2 27 4 12 9 19 12 17 3 -3 2 -15 -2 -27z m4510
-58 c27 -54 29 -66 32 -212 2 -85 0 -175 -4 -200 -8 -41 -10 -33 -26 100 -10
80 -29 201 -43 270 -13 69 -24 127 -24 129 0 16 42 -40 65 -87z m-6538 -254
c-3 -8 -6 -5 -6 6 -1 11 2 17 5 13 3 -3 4 -12 1 -19z m5022 -366 c40 -62 71
-115 68 -118 -5 -5 -24 21 -118 161 -50 76 -92 155 -104 195 -4 14 13 -9 37
-50 24 -41 76 -126 117 -188z m1845 -8 c-9 -25 -18 -43 -20 -41 -2 2 3 35 11
73 8 38 16 92 17 119 1 33 3 24 5 -29 3 -56 -1 -90 -13 -122z m-1967 -26 c6
-13 38 -61 73 -107 48 -65 59 -86 48 -93 -25 -18 -220 -110 -223 -106 -3 2 14
66 35 142 22 76 40 149 40 162 0 30 14 31 27 2z m-4977 -32 c0 -3 -4 -8 -10
-11 -5 -3 -10 -1 -10 4 0 6 5 11 10 11 6 0 10 -2 10 -4z m-50 -54 c0 -12 -89
-108 -90 -96 0 5 16 25 35 44 19 19 35 40 35 47 0 7 5 13 10 13 6 0 10 -3 10
-8z m5253 -27 c4 -8 2 -17 -3 -20 -6 -4 -10 -4 -10 -1 0 2 -3 11 -6 20 -3 9
-2 16 4 16 5 0 12 -7 15 -15z m-3008 -118 c6 -4 -6 -1 -25 7 -19 8 -37 22 -39
33 -3 15 1 14 25 -7 16 -14 34 -28 39 -33z m-30 -17 c3 -5 1 -10 -4 -10 -6 0
-11 5 -11 10 0 6 2 10 4 10 3 0 8 -4 11 -10z m130 -40 c67 -41 563 -291 602
-303 10 -3 47 -17 83 -30 354 -133 411 -143 695 -134 246 9 328 30 605 155
274 123 432 192 444 192 6 0 24 7 40 15 16 9 31 13 34 11 8 -9 -51 -137 -114
-246 -78 -137 -120 -197 -163 -238 -39 -36 -144 -99 -189 -112 -26 -8 -26 -8
8 -9 48 -1 137 47 240 130 25 20 65 49 90 65 60 38 264 200 332 262 24 23 41
32 50 26 10 -6 10 -5 -1 9 -12 15 -11 17 3 17 10 0 15 4 11 9 -14 23 16 18 34
-6 15 -18 18 -29 10 -33 -6 -5 -3 -9 9 -12 22 -6 81 -93 119 -177 36 -77 41
-91 49 -131 6 -32 5 -34 -11 -20 -16 14 -17 13 -11 -8 5 -13 3 -22 -3 -22 -6
0 -11 -9 -11 -19 0 -11 -4 -23 -10 -26 -5 -3 -10 -15 -10 -26 0 -11 -7 -19
-17 -19 -9 0 -13 -3 -10 -7 4 -3 -3 -15 -16 -27 -12 -12 -33 -37 -47 -56 -13
-19 -52 -69 -85 -110 -107 -130 -202 -281 -254 -403 -32 -73 -37 -80 -110
-129 -42 -28 -116 -79 -166 -113 -180 -125 -515 -323 -634 -377 -109 -49 -261
-98 -321 -105 -69 -7 -178 26 -483 147 -310 122 -518 234 -677 363 -47 39 -88
74 -91 80 -4 5 2 39 13 76 50 171 62 252 62 401 -1 161 -20 263 -90 480 -59
184 -78 253 -77 283 0 15 -4 27 -10 27 -6 0 -7 3 -4 7 12 12 48 -29 41 -49 -3
-10 1 -24 9 -32 11 -12 15 -11 26 6 7 11 10 22 7 25 -3 3 -9 -2 -12 -11 -5
-14 -9 -15 -15 -5 -10 17 31 53 45 39 14 -14 24 -12 28 6 2 11 13 3 34 -27 57
-79 118 -141 169 -174 55 -36 189 -93 275 -119 68 -21 429 -107 610 -146 223
-48 547 -81 755 -79 l100 2 -105 8 c-58 4 -172 13 -255 19 -220 16 -328 33
-598 95 -522 120 -686 174 -794 262 -24 19 -71 73 -104 121 -82 116 -140 183
-183 213 -20 13 -36 28 -36 32 0 5 3 6 8 4 4 -3 39 -24 77 -47z m2825 39 c0
-5 5 -7 10 -4 6 3 10 -4 10 -17 0 -42 -96 -173 -188 -257 -99 -91 -303 -253
-311 -246 -2 3 14 33 38 67 23 34 65 109 93 167 78 165 84 174 125 203 21 15
71 39 111 53 39 15 75 31 78 36 7 13 34 11 34 -2z m260 -194 c0 -5 -5 -3 -10
5 -5 8 -10 20 -10 25 0 6 5 3 10 -5 5 -8 10 -19 10 -25z m2097 -117 c-3 -8 -6
-5 -6 6 -1 11 2 17 5 13 3 -3 4 -12 1 -19z m-2054 -8 c3 -11 1 -18 -4 -14 -5
3 -9 12 -9 20 0 20 7 17 13 -6z m-5183 -460 c0 -11 -4 -20 -9 -20 -5 0 -7 9
-4 20 3 11 7 20 9 20 2 0 4 -9 4 -20z m101 -30 c4 -3 37 -71 72 -150 36 -80
81 -179 101 -220 100 -204 121 -336 80 -502 -19 -77 -72 -168 -97 -168 -5 0
-4 6 2 14 14 17 -2 31 -21 20 -9 -5 -9 -2 1 9 12 15 11 17 -6 17 -10 0 -25 6
-32 13 -10 10 -15 8 -27 -7 -11 -16 -14 -17 -14 -4 0 8 -7 21 -15 28 -8 7 -17
28 -21 49 -4 20 -17 60 -30 89 -13 29 -24 55 -24 58 0 3 -9 17 -20 31 -21 27
-27 48 -10 38 6 -3 10 1 10 9 0 8 -5 18 -11 22 -7 4 -7 10 -1 16 6 6 8 17 5
25 -5 12 -7 12 -15 1 -6 -9 -7 -6 -3 9 6 23 -16 68 -28 56 -4 -3 -7 7 -7 23 0
22 3 26 10 14 8 -13 10 -12 10 3 0 9 -6 17 -14 17 -19 0 -28 87 -24 230 3 110
4 114 32 142 16 16 41 30 56 31 24 2 27 5 19 25 -5 13 -9 28 -9 33 0 16 18 10
23 -8 4 -14 5 -13 6 4 0 12 -3 25 -9 28 -5 3 -10 14 -9 23 0 14 2 14 6 2 3 -8
10 -17 14 -20z m5997 -22 c5 -7 33 -65 62 -128 29 -63 67 -146 85 -185 58
-123 83 -190 104 -269 30 -112 53 -282 46 -335 -22 -174 -56 -289 -111 -382
-19 -31 -34 -62 -34 -68 0 -6 -4 -11 -10 -11 -5 0 -10 -6 -10 -14 0 -8 -10
-22 -22 -30 -12 -9 -18 -16 -13 -16 5 0 -7 -17 -26 -38 -19 -20 -41 -49 -49
-64 -7 -16 -15 -26 -18 -24 -6 7 -41 -27 -36 -35 6 -10 -53 -22 -66 -14 -5 3
-10 2 -10 -4 0 -5 5 -13 10 -16 6 -4 7 -11 4 -17 -4 -7 -10 -5 -16 5 -5 9 -15
14 -23 11 -9 -4 -15 0 -15 7 0 11 -2 11 -9 0 -7 -10 -11 0 -16 35 -6 50 -15
108 -34 224 -35 221 -48 492 -32 666 18 200 66 441 92 469 5 5 9 17 9 27 0 31
61 178 74 178 6 0 18 9 26 20 17 23 24 25 38 8z m-6631 -50 c-3 -8 -6 -5 -6 6
-1 11 2 17 5 13 3 -3 4 -12 1 -19z m-17 -48 c-6 -12 -9 -28 -6 -36 3 -9 1 -12
-4 -9 -6 3 -10 13 -10 21 0 19 20 57 27 51 2 -3 -1 -15 -7 -27z m2326 -152
c-5 -197 -14 -244 -75 -409 -40 -110 -156 -337 -217 -425 -53 -78 -85 -130
-116 -191 -12 -24 -25 -43 -30 -43 -11 0 3 64 16 72 7 5 4 8 -6 8 -10 0 -18 5
-18 10 0 6 4 10 9 10 4 0 6 10 4 23 -5 26 82 248 166 420 137 283 204 452 242
610 12 53 24 97 26 97 2 0 1 -82 -1 -182z m-2209 110 c-3 -8 -6 -5 -6 6 -1 11
2 17 5 13 3 -3 4 -12 1 -19z m6149 -170 c4 -6 3 -8 -4 -4 -6 3 -14 1 -18 -5
-3 -6 -1 -14 5 -18 7 -5 5 -14 -9 -29 -16 -17 -19 -29 -14 -62 4 -22 12 -40
18 -40 7 0 18 -15 24 -34 10 -28 9 -63 -5 -187 -11 -105 -17 -235 -17 -409 0
-140 -2 -245 -4 -232 -3 18 -7 21 -16 12 -10 -8 -16 -3 -26 20 -14 34 -31 41
-23 10 7 -27 -5 -25 -18 3 -8 18 -9 13 -5 -21 4 -39 3 -41 -10 -25 -7 10 -14
21 -14 25 0 4 -11 31 -24 61 -53 116 -94 359 -81 476 13 107 54 231 100 303
25 37 49 68 55 68 5 0 10 5 10 11 0 10 58 89 65 89 2 0 7 -5 11 -12z m-6149
-20 c-3 -8 -6 -5 -6 6 -1 11 2 17 5 13 3 -3 4 -12 1 -19z m7279 -543 c4 -92 4
-93 14 -70 7 16 9 11 9 -22 1 -23 5 -44 10 -47 5 -3 12 -45 16 -93 7 -95 -11
-268 -41 -383 -19 -76 -63 -190 -73 -190 -4 0 -8 -15 -9 -32 -2 -18 -10 -37
-20 -43 -49 -29 -493 -195 -523 -195 -5 0 -2 11 7 25 9 14 23 25 30 25 8 0 14
4 14 10 0 5 7 7 15 4 8 -4 15 -1 15 5 0 15 -23 14 -39 -2 -11 -10 -12 -9 -6 3
20 35 103 151 165 230 180 230 249 336 301 466 41 101 78 251 86 342 5 59 8
70 17 55 5 -10 11 -49 12 -88z m-6990 -82 c23 -45 36 -56 46 -40 5 8 8 6 8 -5
0 -10 -6 -18 -12 -18 -8 0 -6 -4 3 -10 22 -13 32 -52 32 -126 0 -66 -6 -84
-29 -84 -8 0 -14 -8 -14 -18 0 -16 -6 -18 -42 -13 -41 6 -43 8 -49 46 -4 22
-12 72 -18 111 -7 40 -11 94 -9 120 3 47 4 49 30 46 22 -3 27 0 22 12 -12 32
14 15 32 -21z m344 -21 c0 -15 -2 -15 -10 -2 -13 20 -13 33 0 25 6 -3 10 -14
10 -23z m-340 -312 c0 -5 -4 -10 -10 -10 -5 0 -10 5 -10 10 0 6 5 10 10 10 6
0 10 -4 10 -10z m-30 -30 c14 -11 21 -20 15 -20 -5 0 -21 9 -35 20 -14 11 -20
20 -15 20 6 0 21 -9 35 -20z m50 -40 c8 -5 11 -10 5 -10 -5 0 -17 5 -25 10 -8
5 -10 10 -5 10 6 0 17 -5 25 -10z m1250 -528 c0 -3 -13 7 -30 23 -16 16 -30
32 -30 36 0 4 14 -6 30 -23 17 -16 30 -32 30 -36z m35 -30 c-3 -3 -11 0 -18 7
-9 10 -8 11 6 5 10 -3 15 -9 12 -12z m49 -21 c17 -6 17 -8 3 -14 -8 -3 -21 1
-27 9 -13 15 -6 17 24 5z m51 -29 c-3 -3 -11 0 -18 7 -9 10 -8 11 6 5 10 -3
15 -9 12 -12z"/>
<path d="M6195 9635 c-213 -41 -242 -56 -280 -138 -15 -31 -16 -53 -10 -135 6
-85 17 -155 31 -201 6 -20 39 43 59 115 10 33 21 63 26 69 5 5 9 17 9 28 0 34
67 162 101 193 47 43 80 54 221 74 l123 18 -80 0 c-45 0 -133 -10 -200 -23z"/>
<path d="M8950 9580 c0 -12 35 -31 44 -23 8 9 -14 33 -30 33 -8 0 -14 -4 -14
-10z"/>
<path d="M8325 9406 c-61 -13 -131 -43 -121 -53 3 -3 20 1 39 10 44 21 115 37
212 46 l80 8 -75 1 c-41 0 -102 -5 -135 -12z"/>
<path d="M8300 9340 c-62 -21 -104 -63 -122 -122 -17 -59 -11 -64 101 -76 113
-13 320 -16 337 -4 8 5 8 24 1 69 -6 35 -9 65 -6 68 11 10 77 -16 98 -39 13
-13 29 -41 36 -62 l13 -38 103 -18 c57 -10 110 -17 117 -15 21 4 -63 82 -136
125 -37 23 -106 55 -153 71 -182 64 -290 76 -389 41z m237 -114 c26 -27 21
-36 -19 -36 -30 0 -31 2 -22 38 8 28 13 27 41 -2z"/>
<path d="M8218 8763 c6 -2 18 -2 25 0 6 3 1 5 -13 5 -14 0 -19 -2 -12 -5z"/>
<path d="M8273 8753 c9 -2 25 -2 35 0 9 3 1 5 -18 5 -19 0 -27 -2 -17 -5z"/>
<path d="M8368 8743 c6 -2 18 -2 25 0 6 3 1 5 -13 5 -14 0 -19 -2 -12 -5z"/>
<path d="M8463 8733 c20 -2 54 -2 75 0 20 2 3 4 -38 4 -41 0 -58 -2 -37 -4z"/>
<path d="M8998 8733 c12 -2 30 -2 40 0 9 3 -1 5 -23 4 -22 0 -30 -2 -17 -4z"/>
<path d="M8728 8723 c34 -2 90 -2 125 0 34 2 6 3 -63 3 -69 0 -97 -1 -62 -3z"/>
<path d="M7730 8355 c-11 -13 -8 -15 14 -15 15 0 45 -9 67 -21 53 -26 60 -18
19 21 -35 33 -80 40 -100 15z"/>
<path d="M9311 7894 c0 -11 3 -14 6 -6 3 7 2 16 -1 19 -3 4 -6 -2 -5 -13z"/>
<path d="M9293 7725 c0 -22 2 -30 4 -17 2 12 2 30 0 40 -3 9 -5 -1 -4 -23z"/>
<path d="M7307 7674 c-12 -7 -38 -14 -57 -18 -108 -18 -143 -26 -182 -44 -27
-12 -57 -17 -80 -14 -30 3 -38 1 -38 -12 0 -27 45 -29 147 -7 54 11 132 24
173 28 73 7 74 7 38 17 -21 5 -38 13 -38 17 0 11 86 29 142 29 29 -1 64 -7 78
-15 37 -21 223 -21 240 0 7 9 10 19 6 23 -13 12 -404 8 -429 -4z"/>
<path d="M7990 7595 c107 -36 203 -64 213 -63 37 6 16 23 -42 35 -32 7 -75 23
-95 37 -35 23 -100 38 -216 50 -44 5 -16 -7 140 -59z"/>
<path d="M8531 5378 c0 -9 -4 -25 -7 -35 -5 -17 -5 -17 6 0 6 10 9 25 7 35 -4
15 -5 15 -6 0z"/>
<path d="M8521 5144 c0 -11 3 -14 6 -6 3 7 2 16 -1 19 -3 4 -6 -2 -5 -13z"/>
<path d="M6540 4510 c8 -5 20 -10 25 -10 6 0 3 5 -5 10 -8 5 -19 10 -25 10 -5
0 -3 -5 5 -10z"/>
<path d="M4360 5829 c0 -5 5 -7 10 -4 6 3 10 8 10 11 0 2 -4 4 -10 4 -5 0 -10
-5 -10 -11z"/>
<path d="M3970 5519 c0 -5 5 -7 10 -4 6 3 10 8 10 11 0 2 -4 4 -10 4 -5 0 -10
-5 -10 -11z"/>
<path d="M4130 4779 c0 -5 5 -7 10 -4 6 3 10 8 10 11 0 2 -4 4 -10 4 -5 0 -10
-5 -10 -11z"/>
<path d="M3610 4835 c-10 -12 -10 -15 4 -15 9 0 16 7 16 15 0 8 -2 15 -4 15
-2 0 -9 -7 -16 -15z"/>
<path d="M3361 2798 c-14 -23 -14 -23 8 -4 22 20 25 26 13 26 -4 0 -13 -10
-21 -22z"/>
<path d="M8738 2673 c7 -3 16 -2 19 1 4 3 -2 6 -13 5 -11 0 -14 -3 -6 -6z"/>
<path d="M8790 2616 c0 -2 8 -10 18 -17 15 -13 16 -12 3 4 -13 16 -21 21 -21
13z"/>
<path d="M9575 1740 c-3 -5 -1 -10 4 -10 6 0 11 5 11 10 0 6 -2 10 -4 10 -3 0
-8 -4 -11 -10z"/>
<path d="M9742 9837 c12 -37 24 -65 26 -62 5 5 -28 107 -39 119 -4 5 1 -21 13
-57z"/>
<path d="M9770 7924 c0 -10 5 -26 10 -34 8 -11 9 -7 4 15 -8 37 -14 45 -14 19z"/>
<path d="M10795 5073 c22 -9 114 -62 205 -118 145 -89 440 -247 517 -276 50
-19 18 0 -83 49 -129 64 -327 175 -439 247 -90 59 -203 115 -227 114 -7 0 5
-7 27 -16z"/>
<path d="M11707 4599 c7 -7 15 -10 18 -7 3 3 -2 9 -12 12 -14 6 -15 5 -6 -5z"/>
<path d="M10550 4584 c0 -6 7 -19 16 -30 14 -18 14 -18 3 6 -14 31 -19 36 -19
24z"/>
<path d="M11794 4557 c10 -7 32 -23 47 -35 16 -13 29 -19 29 -13 0 11 -73 61
-87 60 -5 0 0 -6 11 -12z"/>
<path d="M10617 4455 c9 -19 18 -33 21 -31 4 5 -26 66 -33 66 -3 0 3 -16 12
-35z"/>
<path d="M12114 3815 c17 -41 35 -73 36 -63 0 11 -39 98 -45 98 -3 0 1 -16 9
-35z"/>
<path d="M12156 3727 c3 -10 9 -15 12 -12 3 3 0 11 -7 18 -10 9 -11 8 -5 -6z"/>
<path d="M12230 3586 c0 -12 88 -180 106 -202 8 -10 -11 31 -42 91 -61 118
-64 122 -64 111z"/>
<path d="M12366 3327 c3 -10 9 -15 12 -12 3 3 0 11 -7 18 -10 9 -11 8 -5 -6z"/>
<path d="M12600 2865 c0 -5 5 -17 10 -25 5 -8 10 -10 10 -5 0 6 -5 17 -10 25
-5 8 -10 11 -10 5z"/>
<path d="M11312 2110 c0 -19 2 -27 5 -17 2 9 2 25 0 35 -3 9 -5 1 -5 -18z"/>
<path d="M10850 2097 c0 -2 12 -17 26 -33 229 -258 452 -570 554 -773 28 -57
53 -101 56 -98 2 2 0 16 -6 31 -16 42 -12 89 11 141 11 25 19 49 16 51 -2 3
-14 -19 -27 -48 -21 -48 -23 -51 -36 -33 -8 10 -14 31 -14 46 0 15 -5 40 -11
56 l-12 28 -6 -24 c-6 -21 -16 -10 -86 92 -44 64 -123 176 -175 249 -112 155
-290 349 -290 315z"/>
<path d="M11300 1982 c0 -6 6 -31 14 -54 8 -24 22 -85 31 -135 8 -51 20 -103
25 -115 9 -23 9 -23 9 2 0 14 -6 55 -14 93 -8 37 -21 97 -28 133 -8 36 -19 70
-26 77 -8 8 -11 8 -11 -1z"/>
<path d="M5522 600 c0 -14 2 -19 5 -12 2 6 2 18 0 25 -3 6 -5 1 -5 -13z"/>
</g>
</svg>
